{"title":"The.Girlfriend.Experience.2009.BRRip.XviD.MP3-RARBG","uid":11818977,"size":552125920,"categoryP":"video","categoryS":"hd___movies","magnet":"?xt=urn:btih:6806a10dbe54df07d49b7ec7fd0314c8d4901db9&amp;dn=The.Girlfriend.Experience.2009.BRRip.XviD.MP3-RARBG&amp;tr=udp%3A%2F%2Ftracker.openbittorrent.com%3A80&amp;tr=udp%3A%2F%2Fopen.demonii.com%3A1337&amp;tr=udp%3A%2F%2Ftracker.coppersurfer.tk%3A6969&amp;tr=udp%3A%2F%2Fexodus.desync.com%3A6969","seeders":0,"leechers":1,"uploader":"vickey1992","files":5,"time":1429208086,"description":"Video\nID                                       : 0\nFormat                                   : MPEG-4 Visual\nFormat profile                           : Simple@L5\nFormat settings, BVOP                    : No\nFormat settings, QPel                    : No\nFormat settings, GMC                     : No warppoints\nFormat settings, Matrix                  : Default (H.263)\nCodec ID                                 : XVID\nCodec ID/Hint                            : XviD\nDuration                                 : 1h 16mn\nBit rate                                 : 750 Kbps\nWidth                                    : 720 pixels\nHeight                                   : 302 pixels\nDisplay aspect ratio                     : 2.40:1\nOriginal display aspect ratio            : 2.40:1\nFrame rate                               : 23.976 fps\nColor space                              : YUV\nChroma subsampling                       : 4:2:0\nBit depth                                : 8 bits\nScan type                                : Progressive\nCompression mode                         : Lossy\nBits/(Pixel*Frame)                       : 0.144\nStream size                              : 413 MiB (79%)\nTitle                                    : RARBG.COM - The.Girlfriend.Experience.2009.BRRip.XviD.MP3-RARBG\nWriting library                          : Lavc56.19.100\n\nAudio\nID                                       : 1\nFormat                                   : MPEG Audio\nFormat version                           : Version 1\nFormat profile                           : Layer 3\nMode                                     : Joint stereo\nMode extension                           : MS Stereo\nCodec ID                                 : 55\nCodec ID/Hint                            : MP3\nDuration                                 : 1h 16mn\nBit rate mode                            : Constant\nBit rate                                 : 192 Kbps\nChannel(s)                               : 2 channels\nSampling rate                            : 48.0 KHz\nCompression mode                         : Lossy\nStream size                              : 106 MiB (20%)\nAlignment                                : Aligned on interleaves\nInterleave, duration                     : 24 ms (0.58 video frame)\nInterleave, preload duration             : 24 ms\nTitle                                    : RARBG.COM - The.Girlfriend.Experience.2009.BRRip.XviD.MP3-RARBG\nWriting library                          : LAME3.99.5","torrent":{"xt":"urn:btih:6806a10dbe54df07d49b7ec7fd0314c8d4901db9","amp;dn":"The.Girlfriend.Experience.2009.BRRip.XviD.MP3-RARBG","amp;tr":["udp%3A%2F%2Ftracker.openbittorrent.com%3A80","udp%3A%2F%2Fopen.demonii.com%3A1337","udp%3A%2F%2Ftracker.coppersurfer.tk%3A6969","udp%3A%2F%2Fexodus.desync.com%3A6969"],"infoHash":"6806a10dbe54df07d49b7ec7fd0314c8d4901db9","infoHashBuffer":{"type":"Buffer","data":[104,6,161,13,190,84,223,7,212,155,126,199,253,3,20,200,212,144,29,185]},"announce":[],"urlList":[]}}